<?xml version="1.0" encoding="UTF-8" standalone="no"?><!DOCTYPE svg PUBLIC "-//W3C//DTD SVG 1.1//EN" "http://www.w3.org/Graphics/SVG/1.1/DTD/svg11.dtd"><svg width="100%" height="100%" viewBox="0 0 8000 3542" version="1.1" xmlns="http://www.w3.org/2000/svg" xmlns:xlink="http://www.w3.org/1999/xlink" xml:space="preserve" xmlns:serif="http://www.serif.com/" style="fill-rule:evenodd;clip-rule:evenodd;stroke-linecap:round;stroke-linejoin:round;stroke-miterlimit:1.5;"><g id="Layer1"><path d="M1406.07,2590.26c-0,-6.934 -2.755,-13.584 -7.658,-18.487c-4.903,-4.903 -11.553,-7.658 -18.488,-7.658c-78.728,-0 -313.015,-0 -392.539,-0c-7.095,-0 -13.9,2.819 -18.917,7.836c-5.017,5.017 -7.836,11.822 -7.836,18.917c-0,75.011 -0,281.897 -0,281.897l445.438,-0c-0,-0 -0,-208.011 -0,-282.505Z" style="fill-opacity:0;stroke:#000;stroke-width:141.67px;"/><path d="M2090.01,2227.4l-498.048,0c-0,0 -0,251.195 -0,330.533c-0,13.096 10.617,23.713 23.713,23.713c83.77,-0 365.295,-0 450.014,-0c13.432,-0 24.321,-10.889 24.321,-24.321c0,-80.004 0,-329.925 0,-329.925Z" style="fill-opacity:0;stroke:#000;stroke-width:141.67px;"/><path d="M4333.85,736.765l-1048.71,0c-0,0 36.222,-177.87 50.987,-250.375c3.581,-17.583 19.045,-30.215 36.99,-30.215c139.618,-0 712.369,-0 865.689,-0c22.055,-0 41.062,15.526 45.463,37.137c15.532,76.27 49.578,243.453 49.578,243.453Z" style="fill-opacity:0;stroke:#000;stroke-width:141.67px;"/><circle cx="2776.43" cy="2948.86" r="363.092" style="fill:#ebebeb;fill-opacity:0;stroke:#000;stroke-width:141.67px;"/><circle cx="2765.53" cy="2946.98" r="95.095" style="stroke:#000;stroke-opacity:0;stroke-width:141.67px;"/><circle cx="3551.19" cy="2950.49" r="95.095" style="stroke:#000;stroke-opacity:0;stroke-width:141.67px;"/><path d="M3081.4,1226.88c-0,-83.239 -67.579,-150.818 -150.818,-150.818l-540.137,0c-83.238,0 -150.817,67.579 -150.817,150.818l-0,301.635c-0,83.238 67.579,150.817 150.817,150.817l540.137,0c83.239,0 150.818,-67.579 150.818,-150.817l-0,-301.635Z" style="fill-opacity:0;stroke:#000;stroke-width:141.67px;"/><path d="M4459.8,1226.88c0,-83.239 -67.579,-150.818 -150.817,-150.818l-540.137,0c-83.239,0 -150.818,67.579 -150.818,150.818l0,301.635c0,83.238 67.579,150.817 150.818,150.817l540.137,0c83.238,0 150.817,-67.579 150.817,-150.817l0,-301.635Z" style="fill-opacity:0;stroke:#000;stroke-width:141.67px;"/><path d="M6679.98,1414.53c-0,-62.913 -51.077,-113.99 -113.99,-113.99l-227.98,-0c-62.913,-0 -113.99,51.077 -113.99,113.99l0,375.29c0,62.912 51.077,113.99 113.99,113.99l227.98,-0c62.913,-0 113.99,-51.078 113.99,-113.99l-0,-375.29Z" style="fill-opacity:0;stroke:#000;stroke-width:141.67px;"/><path d="M7009.67,1600.42c-0,-10.647 -8.644,-19.291 -19.291,-19.291l-38.581,0c-10.647,0 -19.29,8.644 -19.29,19.291l-0,73.655c-0,10.647 8.643,19.291 19.29,19.291l38.581,-0c10.647,-0 19.291,-8.644 19.291,-19.291l-0,-73.655Z" style="stroke:#000;stroke-width:141.67px;"/><path d="M4512.41,2084.43c0,-10.647 -8.644,-19.291 -19.291,-19.291l-38.581,0c-10.647,0 -19.29,8.644 -19.29,19.291l-0,73.655c-0,10.647 8.643,19.29 19.29,19.29l38.581,0c10.647,0 19.291,-8.643 19.291,-19.29l0,-73.655Z" style="stroke:#000;stroke-width:141.67px;"/><path d="M4293.2,2528.12c10.646,-0 19.29,-8.644 19.29,-19.291l0,-38.581c0,-10.647 -8.644,-19.291 -19.29,-19.291l-73.655,0c-10.647,0 -19.291,8.644 -19.291,19.291l-0,38.581c-0,10.647 8.644,19.291 19.291,19.291l73.655,-0Z" style="stroke:#000;stroke-width:141.67px;"/><path d="M212.36,1928.36l3868.64,7.015" style="fill:none;stroke:#000;stroke-width:141.67px;"/><path d="M247.434,2219.47l3710.81,7.015" style="fill:none;stroke:#000;stroke-width:141.67px;"/><path d="M3958.25,2226.48c-0,-0 129.975,3.507 126.261,-284.098" style="fill:none;stroke:#000;stroke-width:141.67px;"/><circle cx="3560.25" cy="2948.86" r="363.092" style="fill:#ebebeb;fill-opacity:0;stroke:#000;stroke-width:141.67px;"/><path d="M2376.42,2885.87l-1886.97,-10.522c0,-0 -978.559,-1470.96 606.778,-2139.5" style="fill:none;stroke:#000;stroke-width:141.67px;"/><path d="M1096.22,735.846l5482.04,1.368c-0,-0 491.473,38.033 712.439,711.451" style="fill:none;stroke:#000;stroke-width:141.67px;"/><path d="M7290.7,1448.66l7.014,1416.98" style="fill:none;stroke:#000;stroke-width:141.67px;"/><path d="M3932.38,2883.18l3363.58,-7.014l536.629,7.014l3.508,175.369" style="fill:none;stroke:#000;stroke-width:141.67px;"/><path d="M4597.2,2495.62l263.264,0" style="fill:none;stroke:#000;stroke-width:141.67px;"/><path d="M5696.87,1901.01l0,126.476" style="fill:none;stroke:#000;stroke-width:141.67px;"/><path d="M6342.95,2187.13l318.389,-0" style="fill:none;stroke:#000;stroke-width:141.67px;"/><path d="M6227.28,1008.58l269.082,0" style="fill:none;stroke:#000;stroke-width:141.67px;"/><path d="M5922.59,1087.41c0,-7.418 -2.947,-14.532 -8.192,-19.777c-5.245,-5.246 -12.359,-8.192 -19.777,-8.192c-116.878,-0 -565.501,-0 -681.22,-0c-15.111,-0 -27.361,12.25 -27.361,27.361c-0,226.973 -0,1789.46 -0,1789.46l736.55,0c0,0 0,-1559.72 0,-1788.86Z" style="fill-opacity:0;stroke:#000;stroke-width:141.67px;"/></g></svg>